<mxfile host="Electron" modified="2024-05-12T07:43:53.429Z" agent="Mozilla/5.0 (X11; Linux x86_64) AppleWebKit/537.36 (KHTML, like Gecko) draw.io/24.2.5 Chrome/120.0.6099.109 Electron/28.1.0 Safari/537.36" etag="4y-AtrFOGQHbIXdLCzS-" version="24.2.5" type="device">
  <diagram name="P치gina-1" id="qgvcxrSwzUw72z822c70">
    <mxGraphModel dx="880" dy="481" grid="1" gridSize="10" guides="1" tooltips="1" connect="1" arrows="1" fold="1" page="1" pageScale="1" pageWidth="827" pageHeight="583" math="0" shadow="0">
      <root>
        <mxCell id="0" />
        <mxCell id="1" parent="0" />
        <mxCell id="8cTxROg3GOvID4Hg6Qs1-18" style="edgeStyle=orthogonalEdgeStyle;rounded=0;orthogonalLoop=1;jettySize=auto;html=1;exitX=1;exitY=0.5;exitDx=0;exitDy=0;entryX=0;entryY=0.5;entryDx=0;entryDy=0;" parent="1" source="8cTxROg3GOvID4Hg6Qs1-2" target="8cTxROg3GOvID4Hg6Qs1-14" edge="1">
          <mxGeometry relative="1" as="geometry" />
        </mxCell>
        <mxCell id="8cTxROg3GOvID4Hg6Qs1-2" value="Leer petici칩n aceptada" style="rounded=0;whiteSpace=wrap;html=1;fillColor=#dae8fc;strokeColor=none;" parent="1" vertex="1">
          <mxGeometry x="100" y="160" width="130" height="40" as="geometry" />
        </mxCell>
        <mxCell id="8cTxROg3GOvID4Hg6Qs1-3" style="edgeStyle=orthogonalEdgeStyle;rounded=0;orthogonalLoop=1;jettySize=auto;html=1;exitX=0.5;exitY=1;exitDx=0;exitDy=0;entryX=0.5;entryY=0;entryDx=0;entryDy=0;" parent="1" source="8cTxROg3GOvID4Hg6Qs1-4" target="8cTxROg3GOvID4Hg6Qs1-2" edge="1">
          <mxGeometry relative="1" as="geometry" />
        </mxCell>
        <mxCell id="8cTxROg3GOvID4Hg6Qs1-4" value="Etapa 1 routing finalizada" style="ellipse;whiteSpace=wrap;html=1;fillColor=#f5f5f5;fontColor=#333333;strokeColor=none;" parent="1" vertex="1">
          <mxGeometry x="105" y="80" width="120" height="60" as="geometry" />
        </mxCell>
        <mxCell id="8cTxROg3GOvID4Hg6Qs1-11" value="Avanzar a informe resultados" style="ellipse;whiteSpace=wrap;html=1;fillColor=#f5f5f5;fontColor=#333333;strokeColor=none;" parent="1" vertex="1">
          <mxGeometry x="766" y="540" width="120" height="60" as="geometry" />
        </mxCell>
        <mxCell id="X9Y8WOIghJyttMzxQjOV-12" style="edgeStyle=orthogonalEdgeStyle;rounded=0;orthogonalLoop=1;jettySize=auto;html=1;exitX=1;exitY=0.5;exitDx=0;exitDy=0;" edge="1" parent="1" source="8cTxROg3GOvID4Hg6Qs1-13">
          <mxGeometry relative="1" as="geometry">
            <mxPoint x="610" y="490" as="targetPoint" />
          </mxGeometry>
        </mxCell>
        <mxCell id="8cTxROg3GOvID4Hg6Qs1-13" value="Instanciar CapacityApplication" style="rounded=0;whiteSpace=wrap;html=1;fillColor=#dae8fc;strokeColor=none;" parent="1" vertex="1">
          <mxGeometry x="414" y="160" width="130" height="40" as="geometry" />
        </mxCell>
        <mxCell id="8cTxROg3GOvID4Hg6Qs1-21" style="edgeStyle=orthogonalEdgeStyle;rounded=0;orthogonalLoop=1;jettySize=auto;html=1;exitX=1;exitY=0.5;exitDx=0;exitDy=0;entryX=0;entryY=0.5;entryDx=0;entryDy=0;" parent="1" source="8cTxROg3GOvID4Hg6Qs1-14" target="8cTxROg3GOvID4Hg6Qs1-13" edge="1">
          <mxGeometry relative="1" as="geometry" />
        </mxCell>
        <mxCell id="8cTxROg3GOvID4Hg6Qs1-25" value="SI" style="edgeLabel;html=1;align=center;verticalAlign=middle;resizable=0;points=[];" parent="8cTxROg3GOvID4Hg6Qs1-21" vertex="1" connectable="0">
          <mxGeometry x="-0.3636" y="3" relative="1" as="geometry">
            <mxPoint as="offset" />
          </mxGeometry>
        </mxCell>
        <mxCell id="8cTxROg3GOvID4Hg6Qs1-22" style="edgeStyle=orthogonalEdgeStyle;rounded=0;orthogonalLoop=1;jettySize=auto;html=1;exitX=0.5;exitY=1;exitDx=0;exitDy=0;entryX=0.5;entryY=0;entryDx=0;entryDy=0;" parent="1" source="8cTxROg3GOvID4Hg6Qs1-14" target="8cTxROg3GOvID4Hg6Qs1-15" edge="1">
          <mxGeometry relative="1" as="geometry" />
        </mxCell>
        <mxCell id="8cTxROg3GOvID4Hg6Qs1-26" value="NO" style="edgeLabel;html=1;align=center;verticalAlign=middle;resizable=0;points=[];" parent="8cTxROg3GOvID4Hg6Qs1-22" vertex="1" connectable="0">
          <mxGeometry x="-0.4375" relative="1" as="geometry">
            <mxPoint as="offset" />
          </mxGeometry>
        </mxCell>
        <mxCell id="8cTxROg3GOvID4Hg6Qs1-14" value="Capacidad?" style="rhombus;whiteSpace=wrap;html=1;" parent="1" vertex="1">
          <mxGeometry x="290" y="140" width="80" height="80" as="geometry" />
        </mxCell>
        <mxCell id="8cTxROg3GOvID4Hg6Qs1-23" style="edgeStyle=orthogonalEdgeStyle;rounded=0;orthogonalLoop=1;jettySize=auto;html=1;exitX=0.5;exitY=1;exitDx=0;exitDy=0;" parent="1" source="8cTxROg3GOvID4Hg6Qs1-15" target="8cTxROg3GOvID4Hg6Qs1-16" edge="1">
          <mxGeometry relative="1" as="geometry" />
        </mxCell>
        <mxCell id="X9Y8WOIghJyttMzxQjOV-1" value="NO" style="edgeLabel;html=1;align=center;verticalAlign=middle;resizable=0;points=[];" vertex="1" connectable="0" parent="8cTxROg3GOvID4Hg6Qs1-23">
          <mxGeometry x="0.2692" y="4" relative="1" as="geometry">
            <mxPoint as="offset" />
          </mxGeometry>
        </mxCell>
        <mxCell id="8cTxROg3GOvID4Hg6Qs1-28" style="edgeStyle=orthogonalEdgeStyle;rounded=0;orthogonalLoop=1;jettySize=auto;html=1;exitX=1;exitY=0.5;exitDx=0;exitDy=0;entryX=0;entryY=0.5;entryDx=0;entryDy=0;" parent="1" source="8cTxROg3GOvID4Hg6Qs1-15" target="8cTxROg3GOvID4Hg6Qs1-20" edge="1">
          <mxGeometry relative="1" as="geometry" />
        </mxCell>
        <mxCell id="X9Y8WOIghJyttMzxQjOV-3" value="SI" style="edgeLabel;html=1;align=center;verticalAlign=middle;resizable=0;points=[];" vertex="1" connectable="0" parent="8cTxROg3GOvID4Hg6Qs1-28">
          <mxGeometry x="-0.8214" y="2" relative="1" as="geometry">
            <mxPoint as="offset" />
          </mxGeometry>
        </mxCell>
        <mxCell id="8cTxROg3GOvID4Hg6Qs1-15" value="Teleportaci칩n?" style="rhombus;whiteSpace=wrap;html=1;" parent="1" vertex="1">
          <mxGeometry x="290" y="252" width="80" height="80" as="geometry" />
        </mxCell>
        <mxCell id="8cTxROg3GOvID4Hg6Qs1-24" style="edgeStyle=orthogonalEdgeStyle;rounded=0;orthogonalLoop=1;jettySize=auto;html=1;exitX=0.5;exitY=1;exitDx=0;exitDy=0;entryX=0.5;entryY=0;entryDx=0;entryDy=0;" parent="1" source="8cTxROg3GOvID4Hg6Qs1-16" target="8cTxROg3GOvID4Hg6Qs1-17" edge="1">
          <mxGeometry relative="1" as="geometry" />
        </mxCell>
        <mxCell id="X9Y8WOIghJyttMzxQjOV-2" value="NO" style="edgeLabel;html=1;align=center;verticalAlign=middle;resizable=0;points=[];" vertex="1" connectable="0" parent="8cTxROg3GOvID4Hg6Qs1-24">
          <mxGeometry x="-0.1333" y="1" relative="1" as="geometry">
            <mxPoint as="offset" />
          </mxGeometry>
        </mxCell>
        <mxCell id="8cTxROg3GOvID4Hg6Qs1-31" style="edgeStyle=orthogonalEdgeStyle;rounded=0;orthogonalLoop=1;jettySize=auto;html=1;exitX=1;exitY=0.5;exitDx=0;exitDy=0;entryX=0;entryY=0.5;entryDx=0;entryDy=0;" parent="1" source="8cTxROg3GOvID4Hg6Qs1-16" target="8cTxROg3GOvID4Hg6Qs1-20" edge="1">
          <mxGeometry relative="1" as="geometry" />
        </mxCell>
        <mxCell id="X9Y8WOIghJyttMzxQjOV-4" value="SI" style="edgeLabel;html=1;align=center;verticalAlign=middle;resizable=0;points=[];" vertex="1" connectable="0" parent="8cTxROg3GOvID4Hg6Qs1-31">
          <mxGeometry x="-0.4333" y="2" relative="1" as="geometry">
            <mxPoint as="offset" />
          </mxGeometry>
        </mxCell>
        <mxCell id="8cTxROg3GOvID4Hg6Qs1-16" value="Teleportaci칩n con tasa demanda?" style="rhombus;whiteSpace=wrap;html=1;" parent="1" vertex="1">
          <mxGeometry x="290" y="360" width="80" height="80" as="geometry" />
        </mxCell>
        <mxCell id="8cTxROg3GOvID4Hg6Qs1-30" style="edgeStyle=orthogonalEdgeStyle;rounded=0;orthogonalLoop=1;jettySize=auto;html=1;exitX=1;exitY=0.5;exitDx=0;exitDy=0;entryX=0;entryY=0.5;entryDx=0;entryDy=0;" parent="1" source="8cTxROg3GOvID4Hg6Qs1-17" target="8cTxROg3GOvID4Hg6Qs1-20" edge="1">
          <mxGeometry relative="1" as="geometry" />
        </mxCell>
        <mxCell id="X9Y8WOIghJyttMzxQjOV-5" value="SI" style="edgeLabel;html=1;align=center;verticalAlign=middle;resizable=0;points=[];" vertex="1" connectable="0" parent="8cTxROg3GOvID4Hg6Qs1-30">
          <mxGeometry x="-0.8235" y="3" relative="1" as="geometry">
            <mxPoint as="offset" />
          </mxGeometry>
        </mxCell>
        <mxCell id="X9Y8WOIghJyttMzxQjOV-7" style="edgeStyle=orthogonalEdgeStyle;rounded=0;orthogonalLoop=1;jettySize=auto;html=1;exitX=0.5;exitY=1;exitDx=0;exitDy=0;" edge="1" parent="1" source="8cTxROg3GOvID4Hg6Qs1-17" target="X9Y8WOIghJyttMzxQjOV-6">
          <mxGeometry relative="1" as="geometry" />
        </mxCell>
        <mxCell id="X9Y8WOIghJyttMzxQjOV-8" value="NO" style="edgeLabel;html=1;align=center;verticalAlign=middle;resizable=0;points=[];" vertex="1" connectable="0" parent="X9Y8WOIghJyttMzxQjOV-7">
          <mxGeometry x="-0.05" y="2" relative="1" as="geometry">
            <mxPoint as="offset" />
          </mxGeometry>
        </mxCell>
        <mxCell id="8cTxROg3GOvID4Hg6Qs1-17" value="QBER?" style="rhombus;whiteSpace=wrap;html=1;" parent="1" vertex="1">
          <mxGeometry x="290" y="470" width="80" height="80" as="geometry" />
        </mxCell>
        <mxCell id="8cTxROg3GOvID4Hg6Qs1-34" style="edgeStyle=orthogonalEdgeStyle;rounded=0;orthogonalLoop=1;jettySize=auto;html=1;exitX=1;exitY=0.5;exitDx=0;exitDy=0;entryX=0;entryY=0.5;entryDx=0;entryDy=0;" parent="1" source="8cTxROg3GOvID4Hg6Qs1-19" target="8cTxROg3GOvID4Hg6Qs1-33" edge="1">
          <mxGeometry relative="1" as="geometry" />
        </mxCell>
        <mxCell id="8cTxROg3GOvID4Hg6Qs1-19" value="Instanciar TeleportApplication" style="rounded=0;whiteSpace=wrap;html=1;fillColor=#dae8fc;strokeColor=none;" parent="1" vertex="1">
          <mxGeometry x="430" y="470" width="130" height="40" as="geometry" />
        </mxCell>
        <mxCell id="8cTxROg3GOvID4Hg6Qs1-32" style="edgeStyle=orthogonalEdgeStyle;rounded=0;orthogonalLoop=1;jettySize=auto;html=1;exitX=0.5;exitY=1;exitDx=0;exitDy=0;entryX=0.5;entryY=0;entryDx=0;entryDy=0;" parent="1" source="8cTxROg3GOvID4Hg6Qs1-20" target="8cTxROg3GOvID4Hg6Qs1-19" edge="1">
          <mxGeometry relative="1" as="geometry" />
        </mxCell>
        <mxCell id="8cTxROg3GOvID4Hg6Qs1-20" value="Recoger par치metros espec칤ficos" style="rounded=0;whiteSpace=wrap;html=1;fillColor=#dae8fc;strokeColor=none;" parent="1" vertex="1">
          <mxGeometry x="430" y="380" width="130" height="40" as="geometry" />
        </mxCell>
        <mxCell id="8cTxROg3GOvID4Hg6Qs1-37" style="edgeStyle=orthogonalEdgeStyle;rounded=0;orthogonalLoop=1;jettySize=auto;html=1;exitX=1;exitY=0.5;exitDx=0;exitDy=0;entryX=0;entryY=0.5;entryDx=0;entryDy=0;" parent="1" source="8cTxROg3GOvID4Hg6Qs1-33" target="8cTxROg3GOvID4Hg6Qs1-36" edge="1">
          <mxGeometry relative="1" as="geometry" />
        </mxCell>
        <mxCell id="8cTxROg3GOvID4Hg6Qs1-38" value="NO" style="edgeLabel;html=1;align=center;verticalAlign=middle;resizable=0;points=[];" parent="8cTxROg3GOvID4Hg6Qs1-37" vertex="1" connectable="0">
          <mxGeometry x="-0.35" relative="1" as="geometry">
            <mxPoint as="offset" />
          </mxGeometry>
        </mxCell>
        <mxCell id="8cTxROg3GOvID4Hg6Qs1-39" style="edgeStyle=orthogonalEdgeStyle;rounded=0;orthogonalLoop=1;jettySize=auto;html=1;exitX=0.5;exitY=1;exitDx=0;exitDy=0;entryX=0.5;entryY=1;entryDx=0;entryDy=0;" parent="1" source="8cTxROg3GOvID4Hg6Qs1-33" target="8cTxROg3GOvID4Hg6Qs1-2" edge="1">
          <mxGeometry relative="1" as="geometry">
            <Array as="points">
              <mxPoint x="680" y="680" />
              <mxPoint x="165" y="680" />
            </Array>
          </mxGeometry>
        </mxCell>
        <mxCell id="8cTxROg3GOvID4Hg6Qs1-40" value="SI" style="edgeLabel;html=1;align=center;verticalAlign=middle;resizable=0;points=[];" parent="8cTxROg3GOvID4Hg6Qs1-39" vertex="1" connectable="0">
          <mxGeometry x="-0.9524" y="3" relative="1" as="geometry">
            <mxPoint as="offset" />
          </mxGeometry>
        </mxCell>
        <mxCell id="8cTxROg3GOvID4Hg6Qs1-33" value="Has m치s peticiones?" style="rhombus;whiteSpace=wrap;html=1;" parent="1" vertex="1">
          <mxGeometry x="640" y="450" width="80" height="80" as="geometry" />
        </mxCell>
        <mxCell id="8cTxROg3GOvID4Hg6Qs1-41" style="edgeStyle=orthogonalEdgeStyle;rounded=0;orthogonalLoop=1;jettySize=auto;html=1;exitX=0.5;exitY=1;exitDx=0;exitDy=0;entryX=0.5;entryY=0;entryDx=0;entryDy=0;" parent="1" source="8cTxROg3GOvID4Hg6Qs1-36" target="8cTxROg3GOvID4Hg6Qs1-11" edge="1">
          <mxGeometry relative="1" as="geometry" />
        </mxCell>
        <mxCell id="8cTxROg3GOvID4Hg6Qs1-36" value="Ejecutar simulaci칩n" style="rounded=0;whiteSpace=wrap;html=1;fillColor=#dae8fc;strokeColor=none;" parent="1" vertex="1">
          <mxGeometry x="760" y="470" width="130" height="40" as="geometry" />
        </mxCell>
        <mxCell id="X9Y8WOIghJyttMzxQjOV-10" style="edgeStyle=orthogonalEdgeStyle;rounded=0;orthogonalLoop=1;jettySize=auto;html=1;exitX=1;exitY=0.5;exitDx=0;exitDy=0;" edge="1" parent="1" source="X9Y8WOIghJyttMzxQjOV-6" target="X9Y8WOIghJyttMzxQjOV-9">
          <mxGeometry relative="1" as="geometry" />
        </mxCell>
        <mxCell id="X9Y8WOIghJyttMzxQjOV-6" value="CHSH" style="rhombus;whiteSpace=wrap;html=1;" vertex="1" parent="1">
          <mxGeometry x="290" y="590" width="80" height="80" as="geometry" />
        </mxCell>
        <mxCell id="X9Y8WOIghJyttMzxQjOV-13" style="edgeStyle=orthogonalEdgeStyle;rounded=0;orthogonalLoop=1;jettySize=auto;html=1;exitX=1;exitY=0.5;exitDx=0;exitDy=0;" edge="1" parent="1" source="X9Y8WOIghJyttMzxQjOV-9">
          <mxGeometry relative="1" as="geometry">
            <mxPoint x="610" y="490" as="targetPoint" />
          </mxGeometry>
        </mxCell>
        <mxCell id="X9Y8WOIghJyttMzxQjOV-9" value="Instanciar CHSHApplication" style="rounded=0;whiteSpace=wrap;html=1;fillColor=#dae8fc;strokeColor=none;" vertex="1" parent="1">
          <mxGeometry x="430" y="610" width="130" height="40" as="geometry" />
        </mxCell>
      </root>
    </mxGraphModel>
  </diagram>
</mxfile>
